<svg xmlns:dc="http://purl.org/dc/elements/1.1/" xmlns:cc="http://creativecommons.org/ns#" xmlns:rdf="http://www.w3.org/1999/02/22-rdf-syntax-ns#" xmlns:svg="http://www.w3.org/2000/svg" xmlns="http://www.w3.org/2000/svg" xmlns:sodipodi="http://sodipodi.sourceforge.net/DTD/sodipodi-0.dtd" xmlns:inkscape="http://www.inkscape.org/namespaces/inkscape" version="1.1" x="0px" y="0px" viewBox="0 0 100 100"><g transform="translate(0,-952.36218)"><path style="text-indent:0;text-transform:none;direction:ltr;block-progression:tb;baseline-shift:baseline;color:#000000;enable-background:accumulate;" d="m 10,969.36219 c -1.14495,-0.005 -1.99478,1.01197 -2,2 l 0,52.00001 c 1.1e-4,1.0472 0.95283,1.9999 2,2 l 51.15625,0 c 2.38124,5.8552 8.15029,10 14.84375,10 8.8129,0 16,-7.1871 16,-16 0,-6.6935 -4.14475,-12.4625 -10,-14.8438 l 0,-33.15621 c -1e-4,-1.04717 -0.95283,-1.9999 -2,-2 z m 2,4 66,0 0,30.15621 c -0.65894,-0.083 -1.31908,-0.1562 -2,-0.1562 -8.8129,0 -16,7.1871 -16,16 0,0.6809 0.073,1.3411 0.15625,2 l -48.15625,0 z m 24.03125,12 0,24.00001 c -0.008,1.4253 1.7475,2.4898 2.9375,1.7812 l 20,-11.99996 c 1.21407,-0.70295 1.21407,-2.85955 0,-3.5625 l -20,-12 c -1.38255,-0.60154 -2.90569,0.60775 -2.9375,1.78125 z m 3.9375,3.53125 14.09375,8.46875 -14.09375,8.46871 z M 76,1007.3622 c 6.6511,0 12,5.3489 12,12 0,6.6511 -5.3489,12 -12,12 -6.6511,0 -12,-5.3489 -12,-12 0,-6.6511 5.3489,-12 12,-12 z m 0,3 c -0.57711,0 -1.07242,0.2654 -1.4375,0.6562 -1.63564,1.5138 -3.34184,3.3005 -4.96875,4.9375 -0.79674,0.8045 -0.78114,2.0315 0,2.8125 0.78114,0.7811 2.03138,0.7811 2.8125,0 L 74,1017.1747 l 0,9.1875 c 0,1.1046 0.8953,2 2,2 1.1047,0 2,-0.8954 2,-2 l 0,-9.1875 1.59375,1.5937 c 0.78112,0.7811 2.03136,0.7811 2.8125,0 0.78114,-0.781 0.80455,-2.008 0,-2.8125 -1.66229,-1.6011 -3.30389,-3.4538 -4.96875,-4.9375 -0.36507,-0.3908 -0.86039,-0.6562 -1.4375,-0.6562 z" fill="#66aafa" fill-opacity="1" stroke="none" marker="none" visibility="visible" display="inline" overflow="visible"/></g></svg>